<svg xmlns="http://www.w3.org/2000/svg" width="400" height="300" viewBox="0 0 400 300" fill="none">
  <rect width="400" height="300" fill="#f3f4f6"/>
  <path d="M185 150L185 150.75L185 151.5L185 152.25L185 153L185 153.75L185 154.5L185 155.25L185 156L185 156.75L185 157.5L185 158.25L185 159L185 159.75L185 160.5L185 161.25L185 162L185 162.75L185 163.5L185 164.25L185 165L185 165.75L185 166.5L185 167.25L185 168L185 168.75L185 169.5L185 170.25L185 171L185 171.75L185 172.5L185 173.25L185 174L185 174.75L185 175.5L185 176.25L185 177L185 177.75L185 178.5L185 179.25L185 180L185.75 180L186.5 180L187.25 180L188 180L188.75 180L189.5 180L190.25 180L191 180L191.75 180L192.5 180L193.25 180L194 180L194.75 180L195.5 180L196.25 180L197 180L197.75 180L198.5 180L199.25 180L200 180L200.75 180L201.5 180L202.25 180L203 180L203.75 180L204.5 180L205.25 180L206 180L206.75 180L207.5 180L208.25 180L209 180L209.75 180L210.5 180L211.25 180L212 180L212.75 180L213.5 180L214.25 180L215 180L215 179.25L215 178.5L215 177.75L215 177L215 176.25L215 175.5L215 174.75L215 174L215 173.25L215 172.5L215 171.75L215 171L215 170.25L215 169.5L215 168.75L215 168L215 167.25L215 166.5L215 165.75L215 165L215 164.25L215 163.5L215 162.75L215 162L215 161.25L215 160.5L215 159.75L215 159L215 158.25L215 157.5L215 156.75L215 156L215 155.25L215 154.5L215 153.75L215 153L215 152.25L215 151.5L215 150.75L215 150L214.25 150L213.5 150L212.75 150L212 150L211.25 150L210.5 150L209.75 150L209 150L208.25 150L207.5 150L206.75 150L206 150L205.25 150L204.5 150L203.75 150L203 150L202.25 150L201.5 150L200.75 150L200 150L199.25 150L198.5 150L197.75 150L197 150L196.25 150L195.5 150L194.75 150L194 150L193.25 150L192.5 150L191.75 150L191 150L190.25 150L189.5 150L188.75 150L188 150L187.25 150L186.5 150L185.75 150L185 150Z" fill="#a1a1aa"/>
  <path d="M159.52 121.48L159.52 121.89L159.52 122.3L159.52 122.71L159.52 123.12L159.52 123.53L159.52 123.94L159.52 124.35L159.52 124.76L159.52 125.17L159.52 125.58L159.52 125.99L159.52 126.4L159.52 126.81L159.52 127.22L159.52 127.63L159.52 128.04L159.52 128.45L159.52 128.86L159.52 129.27L159.52 129.68L159.52 130.09L159.52 130.5L159.52 130.91L159.52 131.32L159.52 131.73L159.52 132.14L159.52 132.55L159.52 132.96L159.52 133.37L159.52 133.78L159.52 134.19L159.52 134.6L159.52 135.01L159.52 135.42L159.52 135.83L159.52 136.24L159.52 136.65L159.52 137.06L159.52 137.47L159.52 137.88L159.52 138.29L159.52 138.7L159.52 139.11L159.52 139.52L159.93 139.52L160.34 139.52L160.75 139.52L161.16 139.52L161.57 139.52L161.98 139.52L162.39 139.52L162.8 139.52L163.21 139.52L163.62 139.52L164.03 139.52L164.44 139.52L164.85 139.52L165.26 139.52L165.67 139.52L166.08 139.52L166.49 139.52L166.9 139.52L167.31 139.52L167.72 139.52L168.13 139.52L168.54 139.52L168.95 139.52L169.36 139.52L169.77 139.52L170.18 139.52L170.59 139.52L171 139.52L171.41 139.52L171.82 139.52L172.23 139.52L172.64 139.52L173.05 139.52L173.46 139.52L173.87 139.52L174.28 139.52L174.69 139.52L175.1 139.52L175.51 139.52L175.92 139.52L176.33 139.52L176.74 139.52L177.15 139.52L177.56 139.52L177.97 139.52L178.38 139.52L178.79 139.52L179.2 139.52L179.61 139.52L180.02 139.52L180.43 139.52L180.84 139.52L181.25 139.52L181.66 139.52L182.07 139.52L182.48 139.52L182.89 139.52L183.3 139.52L183.71 139.52L184.12 139.52L184.53 139.52L184.94 139.52L185.35 139.52L185.76 139.52L186.17 139.52L186.58 139.52L186.99 139.52L187.4 139.52L187.81 139.52L188.22 139.52L188.63 139.52L189.04 139.52L189.45 139.52L189.86 139.52L190.27 139.52L190.68 139.52L191.09 139.52L191.5 139.52L191.91 139.52L192.32 139.52L192.73 139.52L193.14 139.52L193.55 139.52L193.96 139.52L194.37 139.52L194.78 139.52L195.19 139.52L195.6 139.52L196.01 139.52L196.42 139.52L196.83 139.52L197.24 139.52L197.65 139.52L198.06 139.52L198.47 139.52L198.88 139.52L199.29 139.52L199.7 139.52L200.11 139.52L200.52 139.52L200.93 139.52L201.34 139.52L201.75 139.52L202.16 139.52L202.57 139.52L202.98 139.52L203.39 139.52L203.8 139.52L204.21 139.52L204.62 139.52L205.03 139.52L205.44 139.52L205.85 139.52L206.26 139.52L206.67 139.52L207.08 139.52L207.49 139.52L207.9 139.52L208.31 139.52L208.72 139.52L209.13 139.52L209.54 139.52L209.95 139.52L210.36 139.52L210.77 139.52L211.18 139.52L211.59 139.52L212 139.52L212.41 139.52L212.82 139.52L213.23 139.52L213.64 139.52L214.05 139.52L214.46 139.52L214.87 139.52L215.28 139.52L215.69 139.52L216.1 139.52L216.51 139.52L216.92 139.52L217.33 139.52L217.74 139.52L218.15 139.52L218.56 139.52L218.97 139.52L219.38 139.52L219.79 139.52L220.2 139.52L220.61 139.52L221.02 139.52L221.43 139.52L221.84 139.52L222.25 139.52L222.66 139.52L223.07 139.52L223.48 139.52L223.89 139.52L224.3 139.52L224.71 139.52L225.12 139.52L225.53 139.52L225.94 139.52L226.35 139.52L226.76 139.52L227.17 139.52L227.58 139.52L227.99 139.52L228.4 139.52L228.81 139.52L229.22 139.52L229.63 139.52L230.04 139.52L230.45 139.52L230.86 139.52L231.27 139.52L231.68 139.52L232.09 139.52L232.5 139.52L232.91 139.52L233.32 139.52L233.73 139.52L234.14 139.52L234.55 139.52L234.96 139.52L235.37 139.52L235.78 139.52L236.19 139.52L236.6 139.52L237.01 139.52L237.42 139.52L237.83 139.52L238.24 139.52L238.65 139.52L239.06 139.52L239.47 139.52L239.88 139.52L240.29 139.52L240.7 139.52L240.7 139.11L240.7 138.7L240.7 138.29L240.7 137.88L240.7 137.47L240.7 137.06L240.7 136.65L240.7 136.24L240.7 135.83L240.7 135.42L240.7 135.01L240.7 134.6L240.7 134.19L240.7 133.78L240.7 133.37L240.7 132.96L240.7 132.55L240.7 132.14L240.7 131.73L240.7 131.32L240.7 130.91L240.7 130.5L240.7 130.09L240.7 129.68L240.7 129.27L240.7 128.86L240.7 128.45L240.7 128.04L240.7 127.63L240.7 127.22L240.7 126.81L240.7 126.4L240.7 125.99L240.7 125.58L240.7 125.17L240.7 124.76L240.7 124.35L240.7 123.94L240.7 123.53L240.7 123.12L240.7 122.71L240.7 122.3L240.7 121.89L240.7 121.48L240.29 121.48L239.88 121.48L239.47 121.48L239.06 121.48L238.65 121.48L238.24 121.48L237.83 121.48L237.42 121.48L237.01 121.48L236.6 121.48L236.19 121.48L235.78 121.48L235.37 121.48L234.96 121.48L234.55 121.48L234.14 121.48L233.73 121.48L233.32 121.48L232.91 121.48L232.5 121.48L232.09 121.48L231.68 121.48L231.27 121.48L230.86 121.48L230.45 121.48L230.04 121.48L229.63 121.48L229.22 121.48L228.81 121.48L228.4 121.48L227.99 121.48L227.58 121.48L227.17 121.48L226.76 121.48L226.35 121.48L225.94 121.48L225.53 121.48L225.12 121.48L224.71 121.48L224.3 121.48L223.89 121.48L223.48 121.48L223.07 121.48L222.66 121.48L222.25 121.48L221.84 121.48L221.43 121.48L221.02 121.48L220.61 121.48L220.2 121.48L219.79 121.48L219.38 121.48L218.97 121.48L218.56 121.48L218.15 121.48L217.74 121.48L217.33 121.48L216.92 121.48L216.51 121.48L216.1 121.48L215.69 121.48L215.28 121.48L214.87 121.48L214.46 121.48L214.05 121.48L213.64 121.48L213.23 121.48L212.82 121.48L212.41 121.48L212 121.48L211.59 121.48L211.18 121.48L210.77 121.48L210.36 121.48L209.95 121.48L209.54 121.48L209.13 121.48L208.72 121.48L208.31 121.48L207.9 121.48L207.49 121.48L207.08 121.48L206.67 121.48L206.26 121.48L205.85 121.48L205.44 121.48L205.03 121.48L204.62 121.48L204.21 121.48L203.8 121.48L203.39 121.48L202.98 121.48L202.57 121.48L202.16 121.48L201.75 121.48L201.34 121.48L200.93 121.48L200.52 121.48L200.11 121.48L199.7 121.48L199.29 121.48L198.88 121.48L198.47 121.48L198.06 121.48L197.65 121.48L197.24 121.48L196.83 121.48L196.42 121.48L196.01 121.48L195.6 121.48L195.19 121.48L194.78 121.48L194.37 121.48L193.96 121.48L193.55 121.48L193.14 121.48L192.73 121.48L192.32 121.48L191.91 121.48L191.5 121.48L191.09 121.48L190.68 121.48L190.27 121.48L189.86 121.48L189.45 121.48L189.04 121.48L188.63 121.48L188.22 121.48L187.81 121.48L187.4 121.48L186.99 121.48L186.58 121.48L186.17 121.48L185.76 121.48L185.35 121.48L184.94 121.48L184.53 121.48L184.12 121.48L183.71 121.48L183.3 121.48L182.89 121.48L182.48 121.48L182.07 121.48L181.66 121.48L181.25 121.48L180.84 121.48L180.43 121.48L180.02 121.48L179.61 121.48L179.2 121.48L178.79 121.48L178.38 121.48L177.97 121.48L177.56 121.48L177.15 121.48L176.74 121.48L176.33 121.48L175.92 121.48L175.51 121.48L175.1 121.48L174.69 121.48L174.28 121.48L173.87 121.48L173.46 121.48L173.05 121.48L172.64 121.48L172.23 121.48L171.82 121.48L171.41 121.48L171 121.48L170.59 121.48L170.18 121.48L169.77 121.48L169.36 121.48L168.95 121.48L168.54 121.48L168.13 121.48L167.72 121.48L167.31 121.48L166.9 121.48L166.49 121.48L166.08 121.48L165.67 121.48L165.26 121.48L164.85 121.48L164.44 121.48L164.03 121.48L163.62 121.48L163.21 121.48L162.8 121.48L162.39 121.48L161.98 121.48L161.57 121.48L161.16 121.48L160.75 121.48L160.34 121.48L159.93 121.48L159.52 121.48Z" fill="#a1a1aa"/>
  <text x="200" y="200" text-anchor="middle" font-family="sans-serif" font-size="24" fill="#6b7280">Image not found</text>
</svg> 